<svg width="147" height="110" viewBox="0 0 147 110" fill="none" xmlns="http://www.w3.org/2000/svg">
<g clip-path="url(#clip0_76_2)">
<mask id="mask0_76_2" style="mask-type:luminance" maskUnits="userSpaceOnUse" x="0" y="0" width="147" height="110">
<path d="M0 0H147V110H0V0Z" fill="white"/>
</mask>
<g mask="url(#mask0_76_2)">
<path d="M27.2006 48.2505C31.2517 45.6656 33.8561 42.5064 33.5667 39.0599C33.2773 33.8902 27.4899 29.8693 17.9407 30.4437L17.6513 30.7309C22.2813 18.9555 30.3836 1.14866 36.7498 1.72308C40.2222 2.29749 42.5372 7.75441 43.6946 12.3497L42.8265 14.6474L41.9584 19.2427C41.6691 20.1043 41.0903 21.8275 39.6435 23.5508L37.9072 25.8484C37.3285 26.9972 36.7498 27.5716 36.7498 28.7205L36.4604 30.7309L36.171 31.5925L37.6179 31.8797C39.3541 31.5925 40.8009 29.8693 41.0903 29.2949L42.2478 26.4228V29.0077L42.5372 32.4541C42.8265 32.7414 43.984 35.3262 46.0096 35.3262C46.8777 35.3262 47.7458 34.4646 48.3246 33.8902C49.4821 32.7414 49.7714 31.3053 49.7714 29.8693L50.0608 26.9972C50.3502 26.9972 50.0608 29.0077 50.9289 30.4437C51.797 31.8797 53.2439 32.7414 53.8226 32.4541C54.9801 31.5925 52.6651 26.9972 52.0864 25.5612L49.1927 20.6787C47.4565 18.0938 46.5884 17.8066 46.5884 16.0834C46.299 14.9346 46.8777 14.0729 46.299 12.9241L45.7202 12.3497C44.5628 7.75441 41.9584 0.574251 37.0391 -0.000161831C30.9624 -0.574574 24.0175 9.47765 15.6258 30.7309C3.76158 32.4541 -0.0002322 38.7727 -0.0002322 38.7727C-0.289602 39.9215 1.73599 41.932 3.76158 41.932C4.62969 41.6447 7.52339 40.2087 7.81276 39.6343V38.7727C9.25961 37.0494 11.5746 34.7518 16.7832 34.4646C21.9919 34.1774 25.175 36.7622 25.4643 39.9215C25.7537 43.368 23.1494 45.9528 19.3876 47.6761H17.6513L19.3876 37.9111C17.0726 36.7622 12.4427 36.1878 11.2852 39.0599C10.1277 41.932 8.10213 54.2818 6.94465 64.334L3.18284 63.1852C1.73599 65.4829 1.44662 67.7805 3.47221 68.9293L6.36591 69.5038V70.0782C6.94465 70.3654 10.4171 71.8014 12.7321 71.8014C13.8895 71.8014 14.7576 71.8014 15.047 70.0782V69.5038H16.2045C26.0431 68.9293 36.171 64.0468 35.5923 56.2923C35.3029 51.9842 31.8305 49.3993 27.2006 48.2505ZM15.6258 64.9085L17.0726 52.2714C21.9919 51.697 25.7537 53.4202 26.0431 56.8667C26.6218 62.3236 20.545 64.334 15.6258 64.9085Z" fill="#567046"/>
<path d="M50.061 56.8669C49.4823 58.5901 48.3248 60.6006 46.878 60.8878C46.2992 60.8878 45.7205 60.0262 45.7205 58.5901C45.4311 55.4309 47.4567 46.8147 48.0354 43.081C48.9036 40.4962 42.5374 39.9217 41.0906 39.9217L39.6437 40.4962C38.4862 44.2298 36.1713 55.1437 36.4606 59.4518C36.75 64.3343 39.9331 66.3447 44.563 66.0575C47.4567 65.7703 50.061 64.3343 52.0866 62.611C54.4016 65.4831 58.7421 66.6319 62.504 66.3447C68.2914 66.0575 71.7638 62.611 73.2106 59.4518C75.2362 61.7494 78.7087 62.8982 83.3386 62.611C92.5984 62.0366 94.9134 48.2507 94.3347 43.9426C94.0453 39.3473 89.7047 35.3264 85.3642 35.6136C82.7599 35.9008 81.313 37.6241 79.8662 40.2089C80.4449 37.0497 82.4705 29.5823 83.3386 27.5719C83.0492 26.1358 78.7087 24.6998 76.3937 25.2742C74.9469 25.5614 70.3169 43.9426 70.8957 52.846H69.4488L68.2914 53.4204C68.002 56.0053 65.3977 61.4622 61.0571 62.0366C59.0315 62.0366 57.874 61.175 57.874 58.5901C57.5847 55.4309 58.4528 52.846 58.4528 52.846C58.4528 52.846 59.8996 54.8565 62.7933 54.5693C65.9764 54.5693 69.4488 49.3995 68.8701 43.081C68.5807 37.6241 63.0827 35.9008 60.189 36.1881C53.2441 36.7625 49.4823 47.9635 49.7717 56.8669M79.2874 49.974L80.1555 50.2612H80.7343C80.7343 47.3891 82.7599 40.2089 85.0748 39.9217C86.2323 39.9217 86.2323 41.0706 86.2323 42.5066C86.2323 43.081 85.6536 57.4413 81.0236 57.7285C79.8662 57.7285 78.998 56.5797 78.998 54.8565L79.2874 49.974ZM61.0571 41.3578L61.6358 40.4962C61.9252 40.4962 62.2146 40.4961 62.2146 42.5066C62.504 45.6659 61.6358 50.2612 59.8996 50.5484C59.0315 50.5484 58.7421 49.3995 58.7421 49.3995C59.0315 46.8147 60.189 43.6554 61.0571 41.3578ZM99.8327 71.5144C101.28 71.5144 102.437 70.94 103.305 70.0784C103.884 70.94 104.463 71.5144 105.62 71.2272C106.778 71.2272 107.356 70.6528 107.356 70.6528C107.356 68.6424 108.514 65.1959 109.382 63.4727H109.671L109.093 67.4935C109.093 69.2168 109.961 70.94 113.144 70.6528C115.748 70.6528 117.195 68.068 117.195 66.9191C117.195 65.4831 115.169 65.7703 115.169 65.7703C115.169 66.3447 114.591 68.3552 113.722 68.3552C113.144 68.3552 112.854 68.068 112.854 66.9191C112.565 64.3343 114.012 60.6006 114.012 58.0157C114.301 57.1541 111.697 56.5797 110.539 56.5797C109.961 56.5797 109.671 56.8669 109.671 57.1541L106.778 64.6215L107.356 58.3029C107.646 57.7285 106.199 57.4413 105.331 57.4413C103.884 57.7285 103.016 61.4622 103.016 65.7703H102.726C102.726 66.6319 102.148 68.9296 100.99 69.2168L100.411 68.068C100.122 66.3447 101.28 62.0366 101.569 60.3134C101.858 58.8774 98.6752 58.5901 98.0965 58.5901L97.5177 58.8774C96.6496 60.8878 95.4921 66.3447 95.7815 68.3552C95.7815 70.6528 97.5177 71.8016 99.8327 71.5144ZM99.8327 57.4413C102.437 57.1541 103.305 55.4309 103.305 54.2821C103.305 53.7076 102.437 53.4204 101.858 53.1332C102.148 52.2716 101.28 51.9844 100.122 52.2716C98.0965 52.2716 97.5177 54.8565 97.8071 55.7181C97.8071 56.8669 98.9646 57.4413 99.8327 57.4413ZM63.0827 86.4492C67.1339 83.8643 70.0276 80.705 69.7382 77.2586C69.1595 72.0888 63.6614 68.068 53.8229 68.6424C40.5118 69.7912 36.1713 76.9713 36.1713 76.9713C35.8819 78.1202 37.9075 80.1306 39.9331 80.1306L43.9843 77.833V76.9713C45.4311 75.2481 47.7461 72.9505 52.9547 72.6633C58.1634 72.376 61.3465 74.9609 61.3465 78.1202C61.6358 81.5666 59.3209 84.1515 55.2697 85.8747H53.8229L55.2697 76.1097C53.2441 74.9609 48.6142 74.3865 47.1673 77.2586C46.2992 80.1306 44.2736 92.4805 43.1162 102.533L39.065 101.384C37.6181 103.682 37.3288 105.979 39.6437 107.128L42.5374 107.702V108.277C42.8268 108.564 46.5886 110 48.9036 110C50.061 110 50.9292 109.713 51.2185 108.277V107.702H52.376C62.2146 107.128 72.3425 102.245 71.7638 94.4909C71.4744 90.1828 68.002 87.598 63.0827 86.4492ZM51.5079 103.107L53.2441 90.47C57.874 89.8956 61.9252 91.6189 62.2146 95.0653C62.7933 100.522 56.7166 102.533 51.5079 103.107ZM78.7087 65.4831L77.5512 66.0575C75.5256 74.6737 73.5 90.47 73.5 98.2246C73.5 99.6606 73.2106 101.958 73.7894 102.533C74.0788 103.394 81.0236 105.118 81.8917 104.256V100.235C82.1811 89.6084 83.628 78.4074 85.6536 67.7807C85.6536 66.9191 80.4449 65.4831 78.7087 65.4831ZM97.8071 75.5353C96.0709 75.5353 95.2028 76.3969 95.2028 76.3969C94.9134 75.8225 94.0453 75.5353 93.1772 75.2481C88.2579 76.3969 83.9173 85.0131 84.2067 91.6189C84.2067 97.0758 87.6791 103.682 95.7815 103.107C105.909 102.246 107.935 90.1828 107.935 84.7259C107.646 79.5562 105.909 74.9609 97.8071 75.5353ZM100.122 83.8643C99.8327 86.162 98.6752 97.9374 94.9134 98.2246C92.8878 98.2246 92.0197 95.6398 92.3091 92.4805L92.5984 89.6084L93.7559 89.8956C94.0453 87.3108 96.0709 79.8434 98.3858 79.5562C100.122 79.5562 100.122 82.4283 100.122 83.8643Z" fill="#567046"/>
<path d="M142.37 88.1725C142.37 89.8958 141.213 94.7783 138.898 94.7783C138.319 95.0655 137.74 94.2039 137.74 92.4806C137.451 89.3214 139.476 80.9924 140.345 77.2587C140.923 74.6738 134.557 73.8122 133.11 73.8122C132.532 74.0994 131.953 74.0994 131.663 74.6738C130.795 77.2587 129.348 84.4389 128.48 89.3214H127.323L126.165 89.8958C125.876 92.7678 123.272 98.2248 118.642 98.512C116.906 98.512 115.748 97.6503 115.748 95.3527C115.459 91.9062 116.327 89.3214 116.327 89.3214C116.327 89.6086 117.774 91.619 120.667 91.3318C123.85 91.0446 127.323 85.8749 126.744 79.5563C126.455 74.3866 120.957 72.6634 118.063 72.6634C110.829 73.2378 107.067 85.5877 107.935 94.4911C108.224 100.522 114.591 103.394 120.378 103.107C125.008 102.533 128.191 100.522 129.927 97.9375C131.374 99.3736 133.689 100.235 136.583 99.948C142.37 99.6608 147.289 94.7783 147 91.3318C146.711 87.8853 142.37 88.1725 142.37 88.1725ZM118.931 77.8331L119.51 76.9715C119.799 76.9715 120.089 77.2587 120.089 78.9819C120.378 82.1412 119.51 86.7365 117.774 87.0237C116.906 87.0237 116.616 86.1621 116.616 86.1621C116.906 83.5772 118.063 80.1308 118.931 77.8331ZM136.583 71.2274C142.081 70.9402 143.817 67.2065 143.528 65.4832C143.528 63.76 142.081 63.4728 140.634 62.8984C141.213 61.1751 139.766 60.8879 137.451 60.8879C133.11 61.1751 132.242 66.3449 132.532 68.0681C132.532 70.653 135.136 71.5146 136.583 71.2274Z" fill="#567046"/>
</g>
</g>
<defs>
<clipPath id="clip0_76_2">
<rect width="147" height="110" fill="white"/>
</clipPath>
</defs>
</svg>
